<svg width="25" height="25" viewBox="0 0 25 25" fill="none" xmlns="http://www.w3.org/2000/svg">
  <path d="M22.6564 21.5516L16.7564 15.6516C18.1742 13.9495 18.8812 11.7663 18.7303 9.55619C18.5795 7.34609 17.5823 5.27923 15.9464 3.78557C14.3104 2.29192 12.1616 1.48648 9.94695 1.5368C7.73227 1.58712 5.62226 2.48933 4.05584 4.05575C2.48942 5.62216 1.58721 7.73218 1.53689 9.94686C1.48657 12.1615 2.29201 14.3103 3.78566 15.9463C5.27932 17.5822 7.34618 18.5794 9.55628 18.7302C11.7664 18.8811 13.9496 18.1741 15.6517 16.7563L21.5517 22.6563L22.6564 21.5516ZM3.12511 10.1563C3.12511 8.76561 3.53748 7.40619 4.31009 6.24991C5.08269 5.09363 6.18082 4.19241 7.46561 3.66024C8.75041 3.12806 10.1642 2.98882 11.5281 3.26012C12.892 3.53142 14.1449 4.20108 15.1282 5.18442C16.1115 6.16776 16.7812 7.42061 17.0525 8.78454C17.3238 10.1485 17.1846 11.5622 16.6524 12.847C16.1202 14.1318 15.219 15.2299 14.0627 16.0025C12.9064 16.7751 11.547 17.1875 10.1564 17.1875C8.29219 17.1854 6.50496 16.444 5.18679 15.1258C3.86863 13.8077 3.12717 12.0204 3.12511 10.1563Z" fill="#1935CA"/>
</svg>